<?xml version='1.0' encoding='UTF-8' standalone='no'?>
<!-- Created with Fritzing (http://www.fritzing.org/) -->
<svg xmlns="http://www.w3.org/2000/svg" xmlns:svg="http://www.w3.org/2000/svg" version="1.2" viewBox="0 0 215.433 215.433"  baseProfile="tiny" height="2.99213in" width="2.99213in" x="0in" y="0in">
 <g transform="matrix(-1, 0, 0, 1, 215.433, 0)">
  <g partID="57660">
   <g id="board" >
    <rect stroke-width="0.5" stroke="black" id="boardoutline"  fill-opacity="0.5" height="214.857" width="214.857" fill="none" x="0.288" y="0.288"/>
   </g>
  </g>
  <g partID="854641502">
   <g transform="translate(182.526,54.176)">
    <g id="copper1" >
     <circle stroke-width="1.53014" stroke="black" cx="3.888" id="connector0pad" connectorname="P$1" r="1.89893"  fill="none" cy="4.608"/>
     <circle stroke-width="1.53014" stroke="black" cx="18.288" id="connector1pad" connectorname="P$2" r="1.89893"  fill="none" cy="4.608"/>
     <g id="copper0" >
      <circle stroke-width="1.53014" stroke="black" cx="3.888" id="connector0pad" connectorname="P$1" r="1.89893"  fill="none" cy="4.608"/>
      <circle stroke-width="1.53014" stroke="black" cx="18.288" id="connector1pad" connectorname="P$2" r="1.89893"  fill="none" cy="4.608"/>
     </g>
    </g>
   </g>
  </g>
  <g partID="854642341">
   <g transform="translate(190.827,169.241)">
    <g id="copper1" >
     <circle stroke-width="0.850392" stroke="black" cx="3.01733" id="connector0pin" r="0.992124"  fill="none" cy="3.01733"/>
    </g>
   </g>
  </g>
  <g partID="854642401">
   <g transform="translate(190.827,191.857)">
    <g id="copper1" >
     <circle stroke-width="0.850392" stroke="black" cx="3.01733" id="connector0pin" r="0.992124"  fill="none" cy="3.01733"/>
    </g>
   </g>
  </g>
  <g partID="854596641">
   <g transform="translate(11.9808,174.476)">
    <g id="copper1" >
     <circle stroke-width="0.850392" stroke="black" cx="3.01733" id="connector0pin" r="0.992124"  fill="none" cy="3.01733"/>
    </g>
   </g>
  </g>
  <g partID="854580541">
   <g transform="translate(152.26,14.8786)">
    <g id="copper1" >
     <circle stroke-width="0.850392" stroke="black" cx="3.01733" id="connector0pin" r="0.992124"  fill="none" cy="3.01733"/>
    </g>
   </g>
  </g>
  <g partID="854581811">
   <g transform="translate(72.7784,145.743)">
    <g id="copper1" >
     <circle stroke-width="0.850392" stroke="black" cx="3.01733" id="connector0pin" r="0.992124"  fill="none" cy="3.01733"/>
    </g>
   </g>
  </g>
  <g partID="854562551">
   <g transform="translate(94.444,58.9903)">
    <g id="copper1" >
     <circle stroke-width="0.850392" stroke="black" cx="3.01733" id="connector0pin" r="0.992124"  fill="none" cy="3.01733"/>
    </g>
   </g>
  </g>
  <g partID="854562952">
   <g transform="translate(44.3944,78.9454)">
    <g transform="matrix(1.11022e-16,1,-1,1.11022e-16,0,0)">
     <g id="copper1" >
      <!-- <rect width="55" x="35" y="35" fill="none" height="55" stroke="rgb(255, 191, 0)" stroke-width="20" /> -->
      <circle stroke-width="1.44" stroke="black" cx="4.5" id="connector0pin" r="1.98"  fill="none" cy="4.5"/>
      <circle stroke-width="1.44" stroke="black" cx="11.7" id="connector1pin" r="1.98"  fill="none" cy="4.5"/>
     </g>
    </g>
   </g>
  </g>
  <g partID="854563172">
   <g transform="translate(37.1944,64.5454)">
    <g transform="matrix(0,1,-1,0,0,0)">
     <g id="copper1" >
      <!-- <rect width="55" x="35" y="35" fill="none" height="55" stroke="rgb(255, 191, 0)" stroke-width="20" /> -->
      <circle stroke-width="1.44" stroke="black" cx="4.5" id="connector0pin" r="1.98"  fill="none" cy="4.5"/>
      <circle stroke-width="1.44" stroke="black" cx="11.7" id="connector1pin" r="1.98"  fill="none" cy="4.5"/>
     </g>
    </g>
   </g>
  </g>
  <g partID="854533131">
   <g transform="translate(73.0072,181.273)">
    <g id="copper1" >
     <circle stroke-width="0.850392" stroke="black" cx="3.01733" id="connector0pin" r="0.992124"  fill="none" cy="3.01733"/>
    </g>
   </g>
  </g>
  <g partID="854533211">
   <g transform="translate(73.0072,195.569)">
    <g id="copper1" >
     <circle stroke-width="0.850392" stroke="black" cx="3.01733" id="connector0pin" r="0.992124"  fill="none" cy="3.01733"/>
    </g>
   </g>
  </g>
  <g partID="854538331">
   <g transform="translate(137.782,15.542)">
    <g id="copper1" >
     <circle stroke-width="0.850392" stroke="black" cx="3.01733" id="connector0pin" r="0.992124"  fill="none" cy="3.01733"/>
    </g>
   </g>
  </g>
  <g partID="854539041">
   <g transform="translate(123.194,37.1337)">
    <g id="copper1" >
     <circle stroke-width="0.850392" stroke="black" cx="3.01733" id="connector0pin" r="0.992124"  fill="none" cy="3.01733"/>
    </g>
   </g>
  </g>
  <g partID="854489881">
   <g transform="translate(65.764,173.994)">
    <g id="copper1" >
     <circle stroke-width="0.850392" stroke="black" cx="3.01733" id="connector0pin" r="0.992124"  fill="none" cy="3.01733"/>
    </g>
   </g>
  </g>
  <g partID="854490281">
   <g transform="translate(72.9368,173.994)">
    <g id="copper1" >
     <circle stroke-width="0.850392" stroke="black" cx="3.01733" id="connector0pin" r="0.992124"  fill="none" cy="3.01733"/>
    </g>
   </g>
  </g>
  <g partID="854495961">
   <g transform="translate(108.404,109.314)">
    <g id="copper1" >
     <circle stroke-width="0.850392" stroke="black" cx="3.01733" id="connector0pin" r="0.992124"  fill="none" cy="3.01733"/>
    </g>
   </g>
  </g>
  <g partID="854419962">
   <g transform="translate(168.02,146.794)">
    <g transform="matrix(0,-1,1,0,0,0)">
     <g id="copper1" >
      <g id="copper0" >
       <rect stroke-width="1.44" stroke="black"  height="4.464" width="4.464" fill="none" x="6.408" y="12.168"/>
       <circle stroke-width="1.44" stroke="black" cx="8.64" id="connector0pad" r="2.232"  fill="none" cy="14.4"/>
       <circle stroke-width="1.44" stroke="black" cx="15.84" id="connector1pad" r="2.232"  fill="none" cy="14.4"/>
       <circle stroke-width="1.44" stroke="black" cx="23.04" id="connector2pad" r="2.232"  fill="none" cy="14.4"/>
      </g>
     </g>
    </g>
   </g>
  </g>
  <g partID="854423042">
   <g transform="translate(161.934,75.8854)">
    <g id="copper1" >
     <g id="copper0" >
      <rect stroke-width="1.44" stroke="black" id="rect11"  height="3.96" width="3.96" x="5.58" fill="none" y="12.78"/>
      <circle stroke-width="1.44" stroke="black" cx="7.56" id="connector0pin" r="1.98"  fill="none" cy="14.76"/>
      <circle stroke-width="1.44" stroke="black" cx="21.96" id="connector1pin" r="1.98"  fill="none" cy="14.76"/>
     </g>
    </g>
   </g>
  </g>
  <g partID="854421192">
   <g transform="translate(159.165,88.3557)">
    <g transform="matrix(0.707107,0.707107,-0.707107,0.707107,0,0)">
     <g id="copper1" >
      <g id="copper0" >
       <rect stroke-width="1.44" stroke="black" id="rect11"  height="3.96" width="3.96" x="5.58" fill="none" y="12.78"/>
       <circle stroke-width="1.44" stroke="black" cx="7.56" id="connector0pin" r="1.98"  fill="none" cy="14.76"/>
       <circle stroke-width="1.44" stroke="black" cx="21.96" id="connector1pin" r="1.98"  fill="none" cy="14.76"/>
      </g>
     </g>
    </g>
   </g>
  </g>
  <g partID="854474691">
   <g transform="translate(51.424,116.348)">
    <g id="copper1" >
     <circle stroke-width="0.850392" stroke="black" cx="3.01733" id="connector0pin" r="0.992124"  fill="none" cy="3.01733"/>
    </g>
   </g>
  </g>
  <g partID="854477191">
   <g transform="translate(58.4936,109.279)">
    <g id="copper1" >
     <circle stroke-width="0.850392" stroke="black" cx="3.01733" id="connector0pin" r="0.992124"  fill="none" cy="3.01733"/>
    </g>
   </g>
  </g>
  <g partID="854477251">
   <g transform="translate(44.048,109.279)">
    <g id="copper1" >
     <circle stroke-width="0.850392" stroke="black" cx="3.01733" id="connector0pin" r="0.992124"  fill="none" cy="3.01733"/>
    </g>
   </g>
  </g>
  <g partID="854421232">
   <g transform="translate(185.444,158.762)">
    <g transform="matrix(-1,0,0,-1,0,0)">
     <g id="copper1" >
      <g id="copper0" >
       <rect stroke-width="1.44" stroke="black"  height="4.464" width="4.464" fill="none" x="0.72" y="1.368"/>
       <circle stroke-width="1.44" stroke="black" cx="3.024" id="connector0pin" r="2.232"  fill="none" cy="3.6"/>
       <circle stroke-width="1.44" stroke="black" cx="24.48" id="connector1pin" r="2.232"  fill="none" cy="3.6"/>
      </g>
     </g>
    </g>
   </g>
  </g>
  <g partID="854362641">
   <g transform="translate(166.473,29.9178)">
    <g id="copper1" >
     <circle stroke-width="0.850392" stroke="black" cx="3.01733" id="connector0pin" r="0.992124"  fill="none" cy="3.01733"/>
    </g>
   </g>
  </g>
  <g partID="854362701">
   <g transform="translate(144.849,29.9178)">
    <g id="copper1" >
     <circle stroke-width="0.850392" stroke="black" cx="3.01733" id="connector0pin" r="0.992124"  fill="none" cy="3.01733"/>
    </g>
   </g>
  </g>
  <g partID="854349392">
   <g transform="translate(187.71,14.7574)">
    <g transform="matrix(0,1,-1,0,0,0)">
     <g id="copper1" >
      <circle stroke-width="1.116" stroke="black" cx="3.888" id="connector0pad" connectorname="1" r="1.71"  fill="none" cy="25.416"/>
      <circle stroke-width="1.116" stroke="black" cx="11.088" id="connector1pad" connectorname="2" r="1.71"  fill="none" cy="25.416"/>
      <circle stroke-width="1.116" stroke="black" cx="18.288" id="connector2pad" connectorname="3" r="1.71"  fill="none" cy="25.416"/>
      <circle stroke-width="1.116" stroke="black" cx="25.488" id="connector3pad" connectorname="4" r="1.71"  fill="none" cy="25.416"/>
      <circle stroke-width="1.116" stroke="black" cx="25.488" id="connector4pad" connectorname="5" r="1.71"  fill="none" cy="3.816"/>
      <circle stroke-width="1.116" stroke="black" cx="18.288" id="connector5pad" connectorname="6" r="1.71"  fill="none" cy="3.816"/>
      <circle stroke-width="1.116" stroke="black" cx="11.088" id="connector6pad" connectorname="7" r="1.71"  fill="none" cy="3.816"/>
      <circle stroke-width="1.116" stroke="black" cx="3.888" id="connector7pad" connectorname="8" r="1.71"  fill="none" cy="3.816"/>
      <g id="copper0" >
       <circle stroke-width="1.116" stroke="black" cx="3.888" id="connector0pad" connectorname="1" r="1.71"  fill="none" cy="25.416"/>
       <circle stroke-width="1.116" stroke="black" cx="11.088" id="connector1pad" connectorname="2" r="1.71"  fill="none" cy="25.416"/>
       <circle stroke-width="1.116" stroke="black" cx="18.288" id="connector2pad" connectorname="3" r="1.71"  fill="none" cy="25.416"/>
       <circle stroke-width="1.116" stroke="black" cx="25.488" id="connector3pad" connectorname="4" r="1.71"  fill="none" cy="25.416"/>
       <circle stroke-width="1.116" stroke="black" cx="25.488" id="connector4pad" connectorname="5" r="1.71"  fill="none" cy="3.816"/>
       <circle stroke-width="1.116" stroke="black" cx="18.288" id="connector5pad" connectorname="6" r="1.71"  fill="none" cy="3.816"/>
       <circle stroke-width="1.116" stroke="black" cx="11.088" id="connector6pad" connectorname="7" r="1.71"  fill="none" cy="3.816"/>
       <circle stroke-width="1.116" stroke="black" cx="3.888" id="connector7pad" connectorname="8" r="1.71"  fill="none" cy="3.816"/>
      </g>
     </g>
    </g>
   </g>
  </g>
  <g partID="854350041">
   <g transform="translate(152.136,73.0885)">
    <g id="copper1" >
     <circle stroke-width="0.850392" stroke="black" cx="3.01733" id="connector0pin" r="0.992124"  fill="none" cy="3.01733"/>
    </g>
   </g>
  </g>
  <g partID="854351131">
   <g transform="translate(15.3768,188.353)">
    <g id="copper1" >
     <circle stroke-width="0.850392" stroke="black" cx="3.01733" id="connector0pin" r="0.992124"  fill="none" cy="3.01733"/>
    </g>
   </g>
  </g>
  <g partID="854600342">
   <g transform="translate(24.3096,110.437)">
    <g id="copper1" >
     <g id="copper0" >
      <circle stroke-width="1.44" stroke="black" cx="5.04" id="connector0pin" r="2.088"  fill="none" cy="5.04"/>
     </g>
    </g>
   </g>
  </g>
  <g partID="854285302">
   <g transform="translate(70.8544,56.8054)">
    <g id="copper1" >
     <g id="copper0" >
      <circle stroke-width="1.44" stroke="black" cx="5.04" id="connector0pin" r="2.088"  fill="none" cy="5.04"/>
     </g>
    </g>
   </g>
  </g>
  <g partID="854287981">
   <g transform="translate(98.0264,87.9546)">
    <g id="copper1" >
     <circle stroke-width="0.850392" stroke="black" cx="3.01732" id="connector0pin" r="0.992124"  fill="none" cy="3.01732"/>
    </g>
   </g>
  </g>
  <g partID="854288641">
   <g transform="translate(44.4584,93.1386)">
    <g id="copper1" >
     <circle stroke-width="0.850392" stroke="black" cx="3.01732" id="connector0pin" r="0.992124"  fill="none" cy="3.01732"/>
    </g>
   </g>
  </g>
  <g partID="854292291">
   <g transform="translate(130.477,152.428)">
    <g id="copper1" >
     <circle stroke-width="0.850392" stroke="black" cx="3.01733" id="connector0pin" r="0.992124"  fill="none" cy="3.01733"/>
    </g>
   </g>
  </g>
  <g partID="854292331">
   <g transform="translate(144.877,152.428)">
    <g id="copper1" >
     <circle stroke-width="0.850392" stroke="black" cx="3.01733" id="connector0pin" r="0.992124"  fill="none" cy="3.01733"/>
    </g>
   </g>
  </g>
  <g partID="854368042">
   <g transform="translate(49.9744,102.165)">
    <g transform="matrix(0,-1,1,0,0,0)">
     <g gorn="0.3" id="copper1" >
      <g gorn="0.3.0" id="copper0" >
       <rect stroke-width="1.44" stroke="black" gorn="0.3.0.0" id="square"  height="3.96" width="3.96" x="2.34" fill="none" y="2.34"/>
       <circle stroke-width="1.44" stroke="black" gorn="0.3.0.1" cx="4.32" id="connector0pin" r="1.98"  fill="none" cy="4.32"/>
       <circle stroke-width="1.44" stroke="black" gorn="0.3.0.2" cx="25.92" id="connector15pin" r="1.98"  fill="none" cy="4.32"/>
       <circle stroke-width="1.44" stroke="black" gorn="0.3.0.3" cx="4.32" id="connector1pin" r="1.98"  fill="none" cy="11.52"/>
       <circle stroke-width="1.44" stroke="black" gorn="0.3.0.4" cx="25.92" id="connector14pin" r="1.98"  fill="none" cy="11.52"/>
       <circle stroke-width="1.44" stroke="black" gorn="0.3.0.5" cx="4.32" id="connector2pin" r="1.98"  fill="none" cy="18.72"/>
       <circle stroke-width="1.44" stroke="black" gorn="0.3.0.6" cx="25.92" id="connector13pin" r="1.98"  fill="none" cy="18.72"/>
       <circle stroke-width="1.44" stroke="black" gorn="0.3.0.7" cx="4.32" id="connector3pin" r="1.98"  fill="none" cy="25.92"/>
       <circle stroke-width="1.44" stroke="black" gorn="0.3.0.8" cx="25.92" id="connector12pin" r="1.98"  fill="none" cy="25.92"/>
       <circle stroke-width="1.44" stroke="black" gorn="0.3.0.9" cx="4.32" id="connector4pin" r="1.98"  fill="none" cy="33.12"/>
       <circle stroke-width="1.44" stroke="black" gorn="0.3.0.10" cx="25.92" id="connector11pin" r="1.98"  fill="none" cy="33.12"/>
       <circle stroke-width="1.44" stroke="black" gorn="0.3.0.11" cx="4.32" id="connector5pin" r="1.98"  fill="none" cy="40.32"/>
       <circle stroke-width="1.44" stroke="black" gorn="0.3.0.12" cx="25.92" id="connector10pin" r="1.98"  fill="none" cy="40.32"/>
       <circle stroke-width="1.44" stroke="black" gorn="0.3.0.13" cx="4.32" id="connector6pin" r="1.98"  fill="none" cy="47.52"/>
       <circle stroke-width="1.44" stroke="black" gorn="0.3.0.14" cx="25.92" id="connector9pin" r="1.98"  fill="none" cy="47.52"/>
       <circle stroke-width="1.44" stroke="black" gorn="0.3.0.15" cx="4.32" id="connector7pin" r="1.98"  fill="none" cy="54.72"/>
       <circle stroke-width="1.44" stroke="black" gorn="0.3.0.16" cx="25.92" id="connector8pin" r="1.98"  fill="none" cy="54.72"/>
      </g>
     </g>
    </g>
   </g>
  </g>
  <g partID="854253392">
   <g transform="translate(174.534,52.7351)">
    <g transform="matrix(0,1,-1,0,0,0)">
     <g id="copper1" >
      <g id="copper0" >
       <circle stroke-width="1.44" stroke="black" cx="5.04" id="connector0pin" r="2.088"  fill="none" cy="5.04"/>
       <circle stroke-width="1.44" stroke="black" cx="5.04" id="connector1pin" r="2.088"  fill="none" cy="12.24"/>
       <circle stroke-width="1.44" stroke="black" cx="5.04" id="connector2pin" r="2.088"  fill="none" cy="19.44"/>
       <circle stroke-width="1.44" stroke="black" cx="5.04" id="connector3pin" r="2.088"  fill="none" cy="26.64"/>
      </g>
     </g>
    </g>
   </g>
  </g>
  <g partID="854308772">
   <g transform="translate(20.4544,121.605)">
    <g id="copper1" >
     <g id="copper0" >
      <circle stroke-width="1.44" stroke="black" cx="5.04" id="connector0pin" r="2.088"  fill="none" cy="5.04"/>
      <circle stroke-width="1.44" stroke="black" cx="5.04" id="connector1pin" r="2.088"  fill="none" cy="12.24"/>
      <circle stroke-width="1.44" stroke="black" cx="5.04" id="connector2pin" r="2.088"  fill="none" cy="19.44"/>
      <circle stroke-width="1.44" stroke="black" cx="5.04" id="connector3pin" r="2.088"  fill="none" cy="26.64"/>
      <circle stroke-width="1.44" stroke="black" cx="5.04" id="connector4pin" r="2.088"  fill="none" cy="33.84"/>
      <circle stroke-width="1.44" stroke="black" cx="5.04" id="connector5pin" r="2.088"  fill="none" cy="41.04"/>
      <circle stroke-width="1.44" stroke="black" cx="5.04" id="connector6pin" r="2.088"  fill="none" cy="48.24"/>
      <circle stroke-width="1.44" stroke="black" cx="5.04" id="connector7pin" r="2.088"  fill="none" cy="55.44"/>
      <circle stroke-width="1.44" stroke="black" cx="5.04" id="connector8pin" r="2.088"  fill="none" cy="62.64"/>
     </g>
    </g>
   </g>
  </g>
  <g partID="854368822">
   <g transform="translate(131.334,186.405)">
    <g transform="matrix(0,1,-1,0,0,0)">
     <g id="copper1" >
      <g id="copper0" >
       <circle stroke-width="1.44" stroke="black" cx="5.04" id="connector0pin" r="2.088"  fill="none" cy="5.04"/>
       <circle stroke-width="1.44" stroke="black" cx="5.04" id="connector1pin" r="2.088"  fill="none" cy="12.24"/>
      </g>
     </g>
    </g>
   </g>
  </g>
  <g partID="854580982">
   <g transform="translate(52.656,138.783)">
    <g id="copper1" >
     <g id="copper0" >
      <circle stroke-width="1.44" stroke="black" cx="5.04" id="connector0pin" r="2.088"  fill="none" cy="5.04"/>
      <circle stroke-width="1.44" stroke="black" cx="5.04" id="connector1pin" r="2.088"  fill="none" cy="12.24"/>
      <circle stroke-width="1.44" stroke="black" cx="5.04" id="connector2pin" r="2.088"  fill="none" cy="19.44"/>
     </g>
    </g>
   </g>
  </g>
  <g partID="854425382">
   <g transform="translate(183.05,177.212)">
    <g id="copper1" >
     <g id="copper0" >
      <circle stroke-width="1.44" stroke="black" cx="5.04" id="connector0pin" r="2.088"  fill="none" cy="5.04"/>
      <circle stroke-width="1.44" stroke="black" cx="5.04" id="connector1pin" r="2.088"  fill="none" cy="12.24"/>
     </g>
    </g>
   </g>
  </g>
  <g partID="854296052">
   <g transform="translate(138.534,20.8054)">
    <g transform="matrix(0,1,-1,0,0,0)">
     <g id="copper1" >
      <g id="copper0" >
       <circle stroke-width="1.44" stroke="black" cx="5.04" id="connector0pin" r="2.088"  fill="none" cy="5.04"/>
       <circle stroke-width="1.44" stroke="black" cx="5.04" id="connector1pin" r="2.088"  fill="none" cy="12.24"/>
      </g>
     </g>
    </g>
   </g>
  </g>
  <g partID="854186781">
   <g transform="translate(202.177,1.9084)">
    <g id="copper1" >
     <circle stroke-width="0" stroke="black" cx="5.85197" id="nonconn0" r="4.25197"  fill="black" cy="5.85197"/>
    </g>
   </g>
  </g>
  <g partID="854187011">
   <g transform="translate(0.82,1.9084)">
    <g id="copper1" >
     <circle stroke-width="0" stroke="black" cx="5.85197" id="nonconn0" r="4.25197"  fill="black" cy="5.85197"/>
    </g>
   </g>
  </g>
  <g partID="854187041">
   <g transform="translate(202.177,201.171)">
    <g id="copper1" >
     <circle stroke-width="0" stroke="black" cx="5.85197" id="nonconn0" r="4.25197"  fill="black" cy="5.85197"/>
    </g>
   </g>
  </g>
  <g partID="854187071">
   <g transform="translate(0.82,201.171)">
    <g id="copper1" >
     <circle stroke-width="0" stroke="black" cx="5.85197" id="nonconn0" r="4.25197"  fill="black" cy="5.85197"/>
    </g>
   </g>
  </g>
  <g partID="854189622">
   <g transform="translate(114.054,71.2054)">
    <g id="copper1" >
     <g id="copper0" >
      <circle stroke-width="1.44" stroke="black" cx="5.04" id="connector0pin" r="2.088"  fill="none" cy="5.04"/>
      <circle stroke-width="1.44" stroke="black" cx="5.04" id="connector1pin" r="2.088"  fill="none" cy="12.24"/>
      <circle stroke-width="1.44" stroke="black" cx="5.04" id="connector2pin" r="2.088"  fill="none" cy="19.44"/>
      <circle stroke-width="1.44" stroke="black" cx="5.04" id="connector3pin" r="2.088"  fill="none" cy="26.64"/>
     </g>
    </g>
   </g>
  </g>
  <g partID="854188272">
   <g transform="translate(49.2544,52.4854)">
    <g transform="matrix(0,-1,1,0,0,0)">
     <g id="copper1" >
      <g id="copper0" >
       <circle stroke-width="1.44" stroke="black" cx="5.04" id="connector0pin" r="2.088"  fill="none" cy="5.04"/>
       <circle stroke-width="1.44" stroke="black" cx="5.04" id="connector1pin" r="2.088"  fill="none" cy="12.24"/>
       <circle stroke-width="1.44" stroke="black" cx="5.04" id="connector2pin" r="2.088"  fill="none" cy="19.44"/>
       <circle stroke-width="1.44" stroke="black" cx="5.04" id="connector3pin" r="2.088"  fill="none" cy="26.64"/>
       <circle stroke-width="1.44" stroke="black" cx="5.04" id="connector4pin" r="2.088"  fill="none" cy="33.84"/>
       <circle stroke-width="1.44" stroke="black" cx="5.04" id="connector5pin" r="2.088"  fill="none" cy="41.04"/>
       <circle stroke-width="1.44" stroke="black" cx="5.04" id="connector6pin" r="2.088"  fill="none" cy="48.24"/>
       <circle stroke-width="1.44" stroke="black" cx="5.04" id="connector7pin" r="2.088"  fill="none" cy="55.44"/>
      </g>
     </g>
    </g>
   </g>
  </g>
  <g partID="854454922">
   <g transform="translate(149.034,127.445)">
    <g id="copper1" >
     <g id="copper0" >
      <circle stroke-width="1.44" stroke="black" cx="5.04" id="connector0pin" r="2.088"  fill="none" cy="5.04"/>
      <circle stroke-width="1.44" stroke="black" cx="5.04" id="connector1pin" r="2.088"  fill="none" cy="12.24"/>
     </g>
    </g>
   </g>
  </g>
  <g partID="854196312">
   <g transform="translate(121.254,128.805)">
    <g id="copper1" >
     <g id="copper0" >
      <circle stroke-width="1.44" stroke="black" cx="5.04" id="connector0pin" r="2.088"  fill="none" cy="5.04"/>
      <circle stroke-width="1.44" stroke="black" cx="5.04" id="connector1pin" r="2.088"  fill="none" cy="12.24"/>
     </g>
    </g>
   </g>
  </g>
  <g partID="854102232">
   <g transform="translate(128.994,152.745)">
    <g transform="matrix(0,1,-1,0,0,0)">
     <g id="copper1" >
      <!-- <rect width="55" x="10" y="10" fill="none" height="55" stroke="rgb(255, 191, 0)" stroke-width="20" /> -->
      <circle stroke-width="1.44" stroke="black" cx="2.7" id="connector0pin" r="1.98"  fill="none" cy="2.7"/>
      <circle stroke-width="1.44" stroke="black" cx="24.3" id="connector1pin" r="1.98"  fill="none" cy="2.7"/>
     </g>
    </g>
   </g>
  </g>
  <g partID="854549192">
   <g transform="translate(54.7338,26.4214)">
    <g transform="matrix(0,-1,1,0,0,0)">
     <g id="copper1" >
      <g id="copper0" >
       <rect stroke-width="1.44" stroke="black" id="square"  height="4.55811" width="4.55811" x="5.49695" fill="none" y="4.48158"/>
       <circle stroke-width="1.44" stroke="black" cx="7.776" id="connector0pin" r="2.27905"  fill="none" cy="6.76063"/>
       <circle stroke-width="1.44" stroke="black" cx="7.776" id="connector1pin" r="2.27905"  fill="none" cy="16.6819"/>
       <circle stroke-width="1.44" stroke="black" cx="7.776" id="connector2pin" r="2.27905"  fill="none" cy="26.6031"/>
       <circle stroke-width="1.44" stroke="black" cx="7.776" id="connector3pin" r="2.27905"  fill="none" cy="36.5244"/>
       <circle stroke-width="1.44" stroke="black" cx="7.776" id="connector4pin" r="2.27905"  fill="none" cy="46.4457"/>
       <circle stroke-width="1.44" stroke="black" cx="7.776" id="connector5pin" r="2.27905"  fill="none" cy="56.3669"/>
      </g>
     </g>
    </g>
   </g>
  </g>
  <g partID="854132792">
   <g transform="translate(178.381,177.045)">
    <g transform="matrix(0,1,-1,0,0,0)">
     <g id="copper1" >
      <g id="copper0" >
       <rect stroke-width="1.44" stroke="black" id="square"  height="4.55811" width="4.55811" x="12.1209" fill="none" y="6.60756"/>
       <circle stroke-width="1.44" stroke="black" cx="14.4" id="connector0pin" r="2.27905"  fill="none" cy="8.8866"/>
       <circle stroke-width="1.44" stroke="black" cx="14.4" id="connector1pin" r="2.27905"  fill="none" cy="23.0599"/>
      </g>
     </g>
    </g>
   </g>
  </g>
  <g partID="854105642">
   <g transform="translate(133.606,169.193)">
    <g transform="matrix(0,-1,1,0,0,0)">
     <g gorn="0.4" id="copper1" >
      <g gorn="0.4.0" id="copper0" >
       <circle stroke-width="1.48" stroke="black" gorn="0.4.0.0" cx="6.54757" style="clip-rule:evenodd;fill-rule:evenodd;stroke-linejoin:miter;stroke-miterlimit:1.41420996;" id="connector1pin" r="2.032"  fill="none" cy="35.6903"/>
       <circle stroke-width="1.48" stroke="black" gorn="0.4.0.1" cx="6.54757" style="clip-rule:evenodd;fill-rule:evenodd;stroke-linejoin:miter;stroke-miterlimit:1.41420996;" id="connector0pin" r="2.032"  fill="none" cy="21.4881"/>
       <circle stroke-width="1.48" stroke="black" gorn="0.4.0.2" cx="89.8494" style="clip-rule:evenodd;fill-rule:evenodd;stroke-linejoin:miter;stroke-miterlimit:1.41420996;" id="connector2pin" r="2.032"  fill="none" cy="6.77674"/>
       <circle stroke-width="1.48" stroke="black" gorn="0.4.0.3" cx="89.8494" style="clip-rule:evenodd;fill-rule:evenodd;stroke-linejoin:miter;stroke-miterlimit:1.41420996;" id="connector3pin" r="2.032"  fill="none" cy="50.4039"/>
      </g>
     </g>
    </g>
   </g>
  </g>
  <g partID="854314342">
   <g transform="translate(114.054,157.605)">
    <g id="copper1" >
     <g id="copper0" >
      <circle stroke-width="1.44" stroke="black" cx="5.04" id="connector0pin" r="2.088"  fill="none" cy="5.04"/>
      <circle stroke-width="1.44" stroke="black" cx="5.04" id="connector1pin" r="2.088"  fill="none" cy="12.24"/>
      <circle stroke-width="1.44" stroke="black" cx="5.04" id="connector2pin" r="2.088"  fill="none" cy="19.44"/>
     </g>
    </g>
   </g>
  </g>
  <g partID="854330881">
   <g transform="translate(87.296,116.379)">
    <g id="copper1" >
     <circle stroke-width="0.850392" stroke="black" cx="3.01733" id="connector0pin" r="0.992124"  fill="none" cy="3.01733"/>
    </g>
   </g>
  </g>
  <g partID="854340641">
   <g transform="translate(32.4672,93.4427)">
    <g id="copper1" >
     <circle stroke-width="0.850392" stroke="black" cx="3.01733" id="connector0pin" r="0.992124"  fill="none" cy="3.01733"/>
    </g>
   </g>
  </g>
  <g partID="57952">
   <g transform="translate(36.0104,113.245)">
    <g id="copper1" >
     <circle stroke-width="1.5" stroke="black" cx="3.884" id="connector0pad" r="2.05"  fill="none" cy="20.6"/>
     <circle stroke-width="1.5" stroke="black" cx="3.884" id="connector1pad" r="2.05"  fill="none" cy="27.8"/>
     <circle stroke-width="1.5" stroke="black" cx="3.884" id="connector2pad" r="2.05"  fill="none" cy="35"/>
     <circle stroke-width="1.5" stroke="black" cx="3.884" id="connector3pad" r="2.05"  fill="none" cy="42.2"/>
     <circle stroke-width="1.5" stroke="black" cx="3.884" id="connector4pad" r="2.05"  fill="none" cy="49.4"/>
     <circle stroke-width="1.5" stroke="black" cx="3.884" id="connector5pad" r="2.05"  fill="none" cy="56.6"/>
     <circle stroke-width="1.5" stroke="black" cx="3.884" id="connector6pad" r="2.05"  fill="none" cy="63.8"/>
     <circle stroke-width="1.5" stroke="black" cx="3.884" id="connector7pad" r="2.05"  fill="none" cy="71"/>
     <circle stroke-width="1.5" stroke="black" cx="68.683" id="connector8pad" r="2.05"  fill="none" cy="71"/>
     <circle stroke-width="1.5" stroke="black" cx="68.683" id="connector9pad" r="2.05"  fill="none" cy="63.8"/>
     <circle stroke-width="1.5" stroke="black" cx="68.683" id="connector10pad" r="2.05"  fill="none" cy="56.6"/>
     <circle stroke-width="1.5" stroke="black" cx="68.683" id="connector11pad" r="2.05"  fill="none" cy="49.4"/>
     <circle stroke-width="1.5" stroke="black" cx="68.683" id="connector12pad" r="2.05"  fill="none" cy="42.2"/>
     <circle stroke-width="1.5" stroke="black" cx="68.683" id="connector13pad" r="2.05"  fill="none" cy="35"/>
     <circle stroke-width="1.5" stroke="black" cx="68.683" id="connector14pad" r="2.05"  fill="none" cy="27.8"/>
     <circle stroke-width="1.5" stroke="black" cx="68.683" id="connector15pad" r="2.05"  fill="none" cy="20.6"/>
    </g>
   </g>
  </g>
  <g partID="854642070">
   <line stroke-width="2.304" stroke="black" y2="61.1183" stroke-linecap="round" y1="177.703" x1="199.29" x2="200.784"/>
  </g>
  <g partID="854642000">
   <line stroke-width="2.304" stroke="black" y2="177.703" stroke-linecap="round" y1="181.285" x1="190.469" x2="199.29"/>
  </g>
  <g partID="854602000">
   <line stroke-width="1.728" stroke="black" y2="117.526" stroke-linecap="round" y1="124.596" x1="26.2018" x2="28.6421"/>
  </g>
  <g partID="854580220">
   <line stroke-width="1.728" stroke="black" y2="4.25777" stroke-linecap="round" y1="4.36248" x1="75.968" x2="155.025"/>
  </g>
  <g partID="854580000">
   <line stroke-width="1.728" stroke="black" y2="16.5293" stroke-linecap="round" y1="4.25776" x1="155.025" x2="155.252"/>
  </g>
  <g partID="854579890">
   <line stroke-width="1.728" stroke="black" y2="4.36248" stroke-linecap="round" y1="16.3978" x1="72.1324" x2="75.9682"/>
  </g>
  <g partID="854562380">
   <line stroke-width="1.728" stroke="black" y2="74.1854" stroke-linecap="round" y1="63.3745" x1="97.4648" x2="97.4898"/>
  </g>
  <g partID="854553860">
   <line stroke-width="1.728" stroke="black" y2="11.56" stroke-linecap="round" y1="25.9142" x1="147.894" x2="147.894"/>
  </g>
  <g partID="854553330">
   <line stroke-width="1.728" stroke="black" y2="11.56" stroke-linecap="round" y1="11.56" x1="147.894" x2="126.362"/>
  </g>
  <g partID="854552800">
   <line stroke-width="1.728" stroke="black" y2="23.6775" stroke-linecap="round" y1="11.56" x1="126.362" x2="126.305"/>
  </g>
  <g partID="854552270">
   <line stroke-width="1.728" stroke="black" y2="25.9142" stroke-linecap="round" y1="25.8548" x1="160.342" x2="147.894"/>
  </g>
  <g partID="854512550">
   <line stroke-width="1.728" stroke="black" y2="179.105" stroke-linecap="round" y1="189.277" x1="126.294" x2="126.294"/>
  </g>
  <g partID="854510280">
   <line stroke-width="1.728" stroke="black" y2="143.213" stroke-linecap="round" y1="153.385" x1="126.294" x2="126.294"/>
  </g>
  <g partID="854516340">
   <line stroke-width="1.728" stroke="black" y2="83.4879" stroke-linecap="round" y1="77.7019" x1="62.9512" x2="68.7383"/>
  </g>
  <g partID="854516470">
   <line stroke-width="1.728" stroke="black" y2="83.4878" stroke-linecap="round" y1="83.4878" x1="68.7384" x2="104.781"/>
  </g>
  <g partID="854516600">
   <line stroke-width="1.728" stroke="black" y2="96.3101" stroke-linecap="round" y1="83.4878" x1="104.781" x2="117.564"/>
  </g>
  <g partID="854514550">
   <line stroke-width="1.728" stroke="black" y2="179.213" stroke-linecap="round" y1="189.277" x1="119.094" x2="119.094"/>
  </g>
  <g partID="854531380">
   <line stroke-width="1.728" stroke="black" y2="7.61248" stroke-linecap="round" y1="16.7736" x1="162.848" x2="165.557"/>
  </g>
  <g partID="854531560">
   <line stroke-width="1.728" stroke="black" y2="170.891" stroke-linecap="round" y1="18.9647" x1="193.845" x2="193.845"/>
  </g>
  <g partID="854532360">
   <line stroke-width="1.728" stroke="black" y2="7.65622" stroke-linecap="round" y1="7.61248" x1="165.557" x2="187.981"/>
  </g>
  <g partID="854619580">
   <line stroke-width="1.728" stroke="black" y2="18.9647" stroke-linecap="round" y1="7.65624" x1="187.981" x2="193.844"/>
  </g>
  <g partID="854540530">
   <line stroke-width="1.728" stroke="black" y2="27.7974" stroke-linecap="round" y1="31.0934" x1="162.294" x2="162.294"/>
  </g>
  <g partID="854531020">
   <line stroke-width="1.728" stroke="black" y2="206.184" stroke-linecap="round" y1="196.242" x1="193.845" x2="193.845"/>
  </g>
  <g partID="854642210">
   <line stroke-width="1.728" stroke="black" y2="206.183" stroke-linecap="round" y1="206.183" x1="193.845" x2="97.5128"/>
  </g>
  <g partID="854642140">
   <line stroke-width="1.728" stroke="black" y2="199.042" stroke-linecap="round" y1="206.183" x1="97.5128" x2="77.3131"/>
  </g>
  <g partID="854645370">
   <line stroke-width="1.728" stroke="black" y2="151.023" stroke-linecap="round" y1="166.424" x1="63.2672" x2="63.2672"/>
  </g>
  <g partID="854645300">
   <line stroke-width="1.728" stroke="black" y2="166.424" stroke-linecap="round" y1="177.892" x1="57.7376" x2="63.2667"/>
  </g>
  <g partID="854645230">
   <line stroke-width="1.728" stroke="black" y2="151.023" stroke-linecap="round" y1="151.023" x1="63.2672" x2="59.8643"/>
  </g>
  <g partID="854533040">
   <line stroke-width="1.728" stroke="black" y2="177.892" stroke-linecap="round" y1="183.839" x1="74.7346" x2="57.7381"/>
  </g>
  <g partID="854296620">
   <line stroke-width="1.728" stroke="black" y2="38.7841" stroke-linecap="round" y1="28.0134" x1="126.282" x2="126.219"/>
  </g>
  <g partID="854489470">
   <line stroke-width="1.728" stroke="black" y2="133.839" stroke-linecap="round" y1="133.745" x1="68.7824" x2="102.594"/>
  </g>
  <g partID="854489400">
   <line stroke-width="1.728" stroke="black" y2="133.746" stroke-linecap="round" y1="175.645" x1="68.7816" x2="68.7821"/>
  </g>
  <g partID="854488120">
   <line stroke-width="1.728" stroke="black" y2="76.2454" stroke-linecap="round" y1="76.2454" x1="52.2344" x2="34.7544"/>
  </g>
  <g partID="854490210">
   <line stroke-width="1.728" stroke="black" y2="141.053" stroke-linecap="round" y1="141.149" x1="75.9536" x2="102.593"/>
  </g>
  <g partID="854581680">
   <line stroke-width="1.728" stroke="black" y2="141.149" stroke-linecap="round" y1="147.394" x1="75.8243" x2="75.9537"/>
  </g>
  <g partID="854490140">
   <line stroke-width="1.728" stroke="black" y2="150.128" stroke-linecap="round" y1="175.645" x1="75.9467" x2="75.8037"/>
  </g>
  <g partID="854289080">
   <line stroke-width="1.728" stroke="black" y2="112.297" stroke-linecap="round" y1="112.331" x1="110.055" x2="62.878"/>
  </g>
  <g partID="854421250">
   <line stroke-width="1.728" stroke="black" y2="152.85" stroke-linecap="round" y1="140.466" x1="182.42" x2="182.42"/>
  </g>
  <g partID="854429900">
   <line stroke-width="1.728" stroke="black" y2="121.444" stroke-linecap="round" y1="92.7034" x1="183.803" x2="182.523"/>
  </g>
  <g partID="854427500">
   <line stroke-width="1.728" stroke="black" y2="157.439" stroke-linecap="round" y1="162.682" x1="162.287" x2="161.365"/>
  </g>
  <g partID="854427150">
   <line stroke-width="1.728" stroke="black" y2="162.682" stroke-linecap="round" y1="162.656" x1="167.205" x2="162.287"/>
  </g>
  <g partID="854426440">
   <line stroke-width="1.728" stroke="black" y2="90.6454" stroke-linecap="round" y1="81.4355" x1="183.989" x2="183.895"/>
  </g>
  <g partID="854455980">
   <line stroke-width="1.728" stroke="black" y2="90.7626" stroke-linecap="round" y1="91.4381" x1="155.58" x2="167.437"/>
  </g>
  <g partID="854451930">
   <line stroke-width="1.728" stroke="black" y2="88.5854" stroke-linecap="round" y1="59.9431" x1="169.494" x2="169.494"/>
  </g>
  <g partID="854451540">
   <line stroke-width="1.728" stroke="black" y2="91.4381" stroke-linecap="round" y1="80.6463" x1="142.02" x2="155.58"/>
  </g>
  <g partID="854456990">
   <line stroke-width="1.728" stroke="black" y2="102.093" stroke-linecap="round" y1="91.4381" x1="155.58" x2="154.316"/>
  </g>
  <g partID="854455470">
   <line stroke-width="1.728" stroke="black" y2="160.555" stroke-linecap="round" y1="141.851" x1="154.17" x2="155.001"/>
  </g>
  <g partID="854454940">
   <line stroke-width="1.728" stroke="black" y2="130.317" stroke-linecap="round" y1="106.198" x1="154.074" x2="154.074"/>
  </g>
  <g partID="854610090">
   <line stroke-width="1.728" stroke="black" y2="132.565" stroke-linecap="round" y1="121.045" x1="171.094" x2="176.854"/>
  </g>
  <g partID="854481740">
   <line stroke-width="1.728" stroke="black" y2="121.045" stroke-linecap="round" y1="98.3254" x1="176.854" x2="171.094"/>
  </g>
  <g partID="854481090">
   <line stroke-width="1.728" stroke="black" y2="131.597" stroke-linecap="round" y1="132.565" x1="176.854" x2="180.2"/>
  </g>
  <g partID="854452830">
   <line stroke-width="1.728" stroke="black" y2="98.3254" stroke-linecap="round" y1="92.1327" x1="170.92" x2="176.854"/>
  </g>
  <g partID="854475330">
   <line stroke-width="1.728" stroke="black" y2="99.9053" stroke-linecap="round" y1="112.296" x1="54.4416" x2="54.3154"/>
  </g>
  <g partID="854472820">
   <line stroke-width="1.728" stroke="black" y2="112.296" stroke-linecap="round" y1="117.998" x1="54.4417" x2="54.4419"/>
  </g>
  <g partID="854362580">
   <line stroke-width="1.728" stroke="black" y2="47.4454" stroke-linecap="round" y1="47.4454" x1="147.866" x2="169.49"/>
  </g>
  <g partID="854362520">
   <line stroke-width="1.728" stroke="black" y2="47.4454" stroke-linecap="round" y1="34.302" x1="147.866" x2="147.866"/>
  </g>
  <g partID="854361000">
   <line stroke-width="1.728" stroke="black" y2="34.302" stroke-linecap="round" y1="47.4454" x1="169.49" x2="169.49"/>
  </g>
  <g partID="854360350">
   <line stroke-width="1.728" stroke="black" y2="18.5402" stroke-linecap="round" y1="69.0332" x1="176.688" x2="176.865"/>
  </g>
  <g partID="854360250">
   <line stroke-width="1.728" stroke="black" y2="18.6063" stroke-linecap="round" y1="18.5402" x1="176.866" x2="183.866"/>
  </g>
  <g partID="854352670">
   <line stroke-width="1.728" stroke="black" y2="17.0724" stroke-linecap="round" y1="18.6062" x1="183.866" x2="182.739"/>
  </g>
  <g partID="854352560">
   <line stroke-width="1.728" stroke="black" y2="69.0332" stroke-linecap="round" y1="77.638" x1="182.799" x2="176.688"/>
  </g>
  <g partID="854579480">
   <line stroke-width="1.728" stroke="black" y2="61.7363" stroke-linecap="round" y1="40.1563" x1="47.0872" x2="18.3695"/>
  </g>
  <g partID="854579410">
   <line stroke-width="1.728" stroke="black" y2="40.1563" stroke-linecap="round" y1="40.1563" x1="61.4224" x2="47.0871"/>
  </g>
  <g partID="854579340">
   <line stroke-width="1.728" stroke="black" y2="40.1563" stroke-linecap="round" y1="33.1102" x1="61.4224" x2="61.4224"/>
  </g>
  <g partID="854486530">
   <line stroke-width="1.728" stroke="black" y2="33.1101" stroke-linecap="round" y1="25.9142" x1="68.5688" x2="61.4228"/>
  </g>
  <g partID="854350610">
   <line stroke-width="1.728" stroke="black" y2="25.9142" stroke-linecap="round" y1="20.842" x1="70.5556" x2="68.5687"/>
  </g>
  <g partID="854350730">
   <line stroke-width="1.728" stroke="black" y2="190.003" stroke-linecap="round" y1="61.7363" x1="18.3696" x2="18.3939"/>
  </g>
  <g partID="854537690">
   <line stroke-width="1.728" stroke="black" y2="20.7534" stroke-linecap="round" y1="25.9142" x1="104.831" x2="102.238"/>
  </g>
  <g partID="854350210">
   <line stroke-width="1.728" stroke="black" y2="25.9142" stroke-linecap="round" y1="25.8524" x1="124.126" x2="104.831"/>
  </g>
  <g partID="854349920">
   <line stroke-width="1.728" stroke="black" y2="75.5109" stroke-linecap="round" y1="69.0748" x1="140.607" x2="153.923"/>
  </g>
  <g partID="854536950">
   <line stroke-width="1.728" stroke="black" y2="69.0748" stroke-linecap="round" y1="19.9263" x1="140.795" x2="140.608"/>
  </g>
  <g partID="854561580">
   <line stroke-width="1.728" stroke="black" y2="49.3828" stroke-linecap="round" y1="62.0076" x1="90.18" x2="96.521"/>
  </g>
  <g partID="854286380">
   <line stroke-width="1.728" stroke="black" y2="62.0076" stroke-linecap="round" y1="74.1855" x1="90.2779" x2="90.1803"/>
  </g>
  <g partID="854287320">
   <line stroke-width="1.728" stroke="black" y2="69.1876" stroke-linecap="round" y1="69.0591" x1="34.7544" x2="54.1549"/>
  </g>
  <g partID="854539660">
   <line stroke-width="1.728" stroke="black" y2="40.1643" stroke-linecap="round" y1="69.037" x1="111.914" x2="112.024"/>
  </g>
  <g partID="854539610">
   <line stroke-width="1.728" stroke="black" y2="40.151" stroke-linecap="round" y1="40.1643" x1="112.024" x2="83.0279"/>
  </g>
  <g partID="854539560">
   <line stroke-width="1.728" stroke="black" y2="45.2775" stroke-linecap="round" y1="40.151" x1="83.0272" x2="83.0742"/>
  </g>
  <g partID="854286960">
   <line stroke-width="1.728" stroke="black" y2="69.0371" stroke-linecap="round" y1="74.7899" x1="106.152" x2="111.914"/>
  </g>
  <g partID="854490840">
   <line stroke-width="1.728" stroke="black" y2="74.8176" stroke-linecap="round" y1="69.1876" x1="54.1552" x2="60.0099"/>
  </g>
  <g partID="854488310">
   <line stroke-width="1.728" stroke="black" y2="78.0798" stroke-linecap="round" y1="90.5246" x1="61.5904" x2="55.2314"/>
  </g>
  <g partID="854288000">
   <line stroke-width="1.728" stroke="black" y2="90.5245" stroke-linecap="round" y1="90.9563" x1="99.6772" x2="61.591"/>
  </g>
  <g partID="854539920">
   <line stroke-width="1.728" stroke="black" y2="69.158" stroke-linecap="round" y1="69.037" x1="119.208" x2="126.226"/>
  </g>
  <g partID="854539850">
   <line stroke-width="1.728" stroke="black" y2="69.037" stroke-linecap="round" y1="32.8833" x1="119.305" x2="119.208"/>
  </g>
  <g partID="854539710">
   <line stroke-width="1.728" stroke="black" y2="32.8832" stroke-linecap="round" y1="33.1482" x1="68.7304" x2="119.305"/>
  </g>
  <g partID="854288400">
   <line stroke-width="1.728" stroke="black" y2="33.1482" stroke-linecap="round" y1="45.2774" x1="68.6998" x2="68.7303"/>
  </g>
  <g partID="854479750">
   <line stroke-width="1.728" stroke="black" y2="99.9054" stroke-linecap="round" y1="105.061" x1="90.3432" x2="90.3083"/>
  </g>
  <g partID="854288520">
   <line stroke-width="1.728" stroke="black" y2="105.061" stroke-linecap="round" y1="104.948" x1="126.227" x2="90.3436"/>
  </g>
  <g partID="854288500">
   <line stroke-width="1.728" stroke="black" y2="104.948" stroke-linecap="round" y1="69.158" x1="126.226" x2="126.227"/>
  </g>
  <g partID="854288940">
   <line stroke-width="1.728" stroke="black" y2="74.7875" stroke-linecap="round" y1="61.8482" x1="54.3224" x2="67.2392"/>
  </g>
  <g partID="854288920">
   <line stroke-width="1.728" stroke="black" y2="61.8482" stroke-linecap="round" y1="61.9106" x1="25.5176" x2="54.3222"/>
  </g>
  <g partID="854289140">
   <line stroke-width="1.728" stroke="black" y2="97.5223" stroke-linecap="round" y1="110.93" x1="47.0996" x2="47.4406"/>
  </g>
  <g partID="854301080">
   <line stroke-width="1.728" stroke="black" y2="119.905" stroke-linecap="round" y1="133.038" x1="124.283" x2="91.5818"/>
  </g>
  <g partID="854292210">
   <line stroke-width="1.728" stroke="black" y2="155.445" stroke-linecap="round" y1="155.445" x1="134.861" x2="146.527"/>
  </g>
  <g partID="854352500">
   <line stroke-width="1.728" stroke="black" y2="77.6139" stroke-linecap="round" y1="69.0748" x1="133.398" x2="139.206"/>
  </g>
  <g partID="854306650">
   <line stroke-width="1.728" stroke="black" y2="69.0748" stroke-linecap="round" y1="28.0134" x1="133.49" x2="133.398"/>
  </g>
  <g partID="854314840">
   <line stroke-width="1.728" stroke="black" y2="177.045" stroke-linecap="round" y1="177.045" x1="116.926" x2="106.793"/>
  </g>
  <g partID="854311130">
   <line stroke-width="1.728" stroke="black" y2="162.645" stroke-linecap="round" y1="162.645" x1="116.926" x2="106.793"/>
  </g>
  <g partID="854340560">
   <line stroke-width="1.728" stroke="black" y2="96.156" stroke-linecap="round" y1="96.4185" x1="34.1185" x2="25.4946"/>
  </g>
  <g partID="854340110">
   <line stroke-width="1.728" stroke="black" y2="61.9106" stroke-linecap="round" y1="96.1559" x1="25.4944" x2="25.5176"/>
  </g>
  <g partID="854339790">
   <line stroke-width="1.728" stroke="black" y2="90.6158" stroke-linecap="round" y1="90.5414" x1="32.66" x2="37.8342"/>
  </g>
  <g partID="854339750">
   <line stroke-width="1.728" stroke="black" y2="90.5414" stroke-linecap="round" y1="78.3054" x1="32.6895" x2="32.6604"/>
  </g>
  <g partID="854288240">
   <line stroke-width="1.728" stroke="black" y2="180.828" stroke-linecap="round" y1="183.187" x1="41.7079" x2="45.748"/>
  </g>
  <g partID="854288280">
   <line stroke-width="1.728" stroke="black" y2="119.365" stroke-linecap="round" y1="180.828" x1="45.748" x2="47.0651"/>
  </g>
  <g partID="854341920">
   <line stroke-width="1.728" stroke="black" y2="83.8167" stroke-linecap="round" y1="84.8344" x1="47.476" x2="41.9207"/>
  </g>
  <g partID="854341830">
   <line stroke-width="1.728" stroke="black" y2="84.8344" stroke-linecap="round" y1="94.7889" x1="47.476" x2="47.476"/>
  </g>
  <g partID="854488900">
   <line stroke-width="1.728" stroke="black" y2="191.569" stroke-linecap="round" y1="191.554" x1="111.91" x2="32.7608"/>
  </g>
  <g partID="854496920">
   <line stroke-width="1.728" stroke="black" y2="191.554" stroke-linecap="round" y1="198.657" x1="111.91" x2="111.91"/>
  </g>
  <g partID="854293300">
   <line stroke-width="1.728" stroke="black" y2="198.657" stroke-linecap="round" y1="198.657" x1="133.446" x2="111.909"/>
  </g>
  <g partID="854513680">
   <line stroke-width="1.728" stroke="black" y2="169.847" stroke-linecap="round" y1="162.709" x1="126.192" x2="133.329"/>
  </g>
  <g partID="854512400">
   <line stroke-width="1.728" stroke="black" y2="184.223" stroke-linecap="round" y1="169.846" x1="133.329" x2="133.445"/>
  </g>
  <g partID="854510780">
   <line stroke-width="1.728" stroke="black" y2="162.709" stroke-linecap="round" y1="157.505" x1="126.265" x2="126.192"/>
  </g>
  <g partID="854293380">
   <line stroke-width="1.728" stroke="black" y2="162.625" stroke-linecap="round" y1="191.569" x1="32.7608" x2="32.7872"/>
  </g>
  <g partID="854293260">
   <line stroke-width="1.728" stroke="black" y2="198.657" stroke-linecap="round" y1="184.223" x1="133.446" x2="133.446"/>
  </g>
  <g partID="854472120">
   <line stroke-width="1.728" stroke="black" y2="92.7054" stroke-linecap="round" y1="112.296" x1="39.996" x2="39.9041"/>
  </g>
  <g partID="854288300">
   <line stroke-width="1.728" stroke="black" y2="112.296" stroke-linecap="round" y1="119.365" x1="47.0648" x2="39.9957"/>
  </g>
  <g partID="854308590">
   <line stroke-width="1.728" stroke="black" y2="169.845" stroke-linecap="round" y1="169.845" x1="116.926" x2="106.793"/>
  </g>
  <g partID="854293460">
   <line stroke-width="1.728" stroke="black" y2="162.64" stroke-linecap="round" y1="162.625" x1="32.7872" x2="37.7944"/>
  </g>
 </g>
</svg>
